<?xml version="1.0" encoding="utf-8"?>
<!-- Generator: Adobe Illustrator 15.0.0, SVG Export Plug-In . SVG Version: 6.00 Build 0)  -->
<!DOCTYPE svg PUBLIC "-//W3C//DTD SVG 1.1//EN" "http://www.w3.org/Graphics/SVG/1.1/DTD/svg11.dtd">
<svg version="1.1" id="Layer_1" xmlns="http://www.w3.org/2000/svg" xmlns:xlink="http://www.w3.org/1999/xlink" x="0px" y="0px"
	 width="130px" height="69px" viewBox="0 0 130 69" enable-background="new 0 0 130 69" xml:space="preserve">
<g>
	<g>
		<path fill="#FFFFFF" d="M81.22,19.119c0,10.556-8.556,19.112-19.111,19.112s-19.112-8.557-19.112-19.112
			c0-10.555,8.557-19.111,19.112-19.111S81.22,8.564,81.22,19.119"/>
		<path fill="#3AC1D0" d="M73.729,28.079c0.377-0.218,0.575-0.542,0.68-0.907v-14.13c0.007-2.14-1.14-4.023-2.851-4.684
			c-1.055-0.406-3.194-0.674-5.694,2.083c-0.252,0.255-1.74,1.789-3.71,3.821c-1.969-2.033-3.457-3.566-3.709-3.821
			c-2.501-2.757-4.64-2.489-5.694-2.083c-1.711,0.66-2.856,2.544-2.851,4.687v14.011c0.094,0.413,0.292,0.783,0.709,1.023
			c0.475,0.274,1.017,0.006,1.516-0.359l10.029-10.343l0.001,0.001l1.198,1.235l8.752,9.024
			C72.633,28.043,73.221,28.373,73.729,28.079 M52.038,24.724V13.042c-0.004-1.246,0.606-2.352,1.481-2.689
			c0.941-0.363,2.136,0.186,3.36,1.545l0.027,0.03l0.02,0.019l-0.021,0.02l3.739,3.855C57.676,18.889,54.148,22.536,52.038,24.724
			 M72.271,24.724c-1.836-1.902-4.742-4.908-7.423-7.678c-0.4-0.415-0.798-0.825-1.185-1.225l0.563-0.581l3.176-3.274l-0.021-0.02
			l0.026-0.024c-0.008,0.006,0.021-0.024,0.021-0.024c1.226-1.359,2.418-1.908,3.359-1.545c0.877,0.338,1.486,1.443,1.482,2.687
			V24.724z"/>
	</g>
	<g>
		<path fill="#FFFFFF" d="M15.313,42.98L10.6,53.944L6.096,43.083c-0.845-1.069-2.092-1.732-3.458-1.835l-1.239,0.406l-1.512,20.308
			l4.009,0.066L4.75,48.883l3.943,8.742l3.681,0.064l4.074-9.267l0.961,13.749l4.034-0.144l-1.39-20.529
			C18.396,41.041,16.404,41.662,15.313,42.98"/>
		<path fill="#FFFFFF" d="M31.161,47.368c-1.415,0-2.696,0.313-3.843,0.94c-1.148,0.627-2.035,1.535-2.66,2.726
			c-0.626,1.19-0.938,2.421-0.938,3.693c0,1.662,0.313,3.072,0.938,4.23c0.625,1.159,1.539,2.038,2.741,2.637
			c1.202,0.6,2.465,0.899,3.789,0.899c2.141,0,3.916-0.72,5.326-2.159c1.411-1.44,2.116-3.255,2.116-5.444
			c0-2.171-0.699-3.968-2.096-5.39S33.347,47.368,31.161,47.368 M33.671,58.232c-0.674,0.764-1.508,1.146-2.503,1.146
			s-1.831-0.382-2.509-1.146c-0.679-0.764-1.018-1.864-1.018-3.301s0.339-2.537,1.018-3.301c0.678-0.764,1.514-1.146,2.509-1.146
			s1.829,0.382,2.503,1.146c0.673,0.764,1.01,1.855,1.01,3.273C34.681,56.359,34.344,57.469,33.671,58.232"/>
		<path fill="#FFFFFF" d="M48.212,47.368c-1.415,0-2.696,0.313-3.843,0.94c-1.148,0.627-2.035,1.535-2.66,2.726
			c-0.626,1.19-0.938,2.421-0.938,3.693c0,1.662,0.313,3.072,0.938,4.23c0.625,1.159,1.54,2.038,2.741,2.637
			c1.202,0.6,2.465,0.899,3.789,0.899c2.141,0,3.916-0.72,5.326-2.159c1.41-1.44,2.115-3.255,2.115-5.444
			c0-2.171-0.698-3.968-2.095-5.39S50.398,47.368,48.212,47.368 M50.722,58.232c-0.674,0.764-1.509,1.146-2.503,1.146
			c-0.995,0-1.831-0.382-2.509-1.146c-0.679-0.764-1.018-1.864-1.018-3.301s0.339-2.537,1.018-3.301
			c0.678-0.764,1.514-1.146,2.509-1.146c0.994,0,1.829,0.382,2.503,1.146s1.01,1.855,1.01,3.273
			C51.731,56.359,51.396,57.469,50.722,58.232"/>
		<path fill="#FFFFFF" d="M67.02,48.218c-0.894,3.069-2.7,9.265-2.856,9.735l-2.811-9.578c-1.123-1.198-3.095-1.331-4.64-0.668
			l5.15,14.518l4.534-0.131l5.015-14.492C69.938,47.023,68.124,47.154,67.02,48.218"/>
		<path fill="#FFFFFF" d="M75.324,47.322h-1.566v12.411c0.204,1.232,1.101,2.368,2.604,2.587h1.612V49.727
			C77.67,48.46,76.614,47.485,75.324,47.322"/>
		<path fill="#FFFFFF" d="M94.593,48.991c-0.365-0.473-0.903-0.861-1.613-1.166c-0.711-0.305-1.495-0.457-2.354-0.457
			c-1.947,0-3.563,0.816-4.846,2.449v-0.945c-0.194-0.491-0.463-0.774-1.115-0.97c-0.24-0.072-0.499-0.147-0.766-0.212H82.18v14.481
			h3.899v-6.558c0-1.617,0.098-2.727,0.296-3.326c0.197-0.601,0.562-1.083,1.095-1.446c0.532-0.363,1.133-0.545,1.804-0.545
			c0.523,0,0.971,0.127,1.343,0.382c0.371,0.255,0.64,0.612,0.805,1.07c0.166,0.459,0.248,1.47,0.248,3.033v7.39h3.899v-8.996
			c0-1.118-0.071-1.977-0.215-2.577C95.211,50,94.957,49.464,94.593,48.991"/>
		<path fill="#FFFFFF" d="M109.229,49.831c-1.168-1.642-2.648-2.463-4.441-2.463c-1.739,0-3.193,0.67-4.362,2.009
			c-1.17,1.34-1.755,3.278-1.755,5.813c0,2.024,0.446,3.715,1.338,5.073c1.138,1.719,2.681,2.579,4.628,2.579
			c1.748,0,3.194-0.813,4.339-2.438l-0.015,2.208c0,0.894-0.06,1.506-0.178,1.838c-0.173,0.465-0.429,0.803-0.766,1.012
			c-0.501,0.313-1.253,0.47-2.256,0.47c-0.306,0-0.578-0.022-0.819-0.066c-0.582-0.01-1.175-0.124-1.658-0.267
			c-0.523-0.155-1.018-0.568-1.479-0.864c-0.273-0.174-0.633-0.389-0.834-0.676l-0.316-0.041c-0.624,0.587-1.061,1.495-0.859,2.37
			c0.054,0.231,0.154,0.453,0.285,0.664c0.178,0.216,0.377,0.423,0.604,0.617c1.029,0.882,2.773,1.323,5.233,1.323
			c1.302,0,2.379-0.142,3.23-0.428c0.851-0.284,1.532-0.68,2.042-1.183c0.51-0.505,0.906-1.198,1.189-2.082
			c0.281-0.885,0.423-2.22,0.423-4.007V47.705h-3.573V49.831z M108.049,58.465c-0.645,0.766-1.434,1.148-2.367,1.148
			c-0.871,0-1.604-0.374-2.197-1.12c-0.595-0.746-0.891-1.922-0.891-3.529c0-1.53,0.296-2.668,0.891-3.415
			c0.594-0.746,1.349-1.119,2.266-1.119c0.943,0,1.723,0.38,2.339,1.141c0.617,0.761,0.926,1.925,0.926,3.493
			C109.015,56.566,108.692,57.7,108.049,58.465"/>
		<path fill="#FFFFFF" d="M128.018,49.501c-1.396-1.422-3.188-2.133-5.373-2.133c-1.415,0-2.696,0.313-3.845,0.94
			c-1.147,0.627-2.034,1.535-2.659,2.726c-0.626,1.19-0.938,2.421-0.938,3.693c0,1.662,0.313,3.072,0.938,4.23
			c0.625,1.159,1.539,2.038,2.741,2.637c1.202,0.6,2.466,0.899,3.789,0.899c2.141,0,3.916-0.72,5.326-2.159
			c1.411-1.44,2.116-3.255,2.116-5.444C130.113,52.72,129.414,50.923,128.018,49.501 M125.153,58.232
			c-0.674,0.764-1.508,1.146-2.503,1.146s-1.831-0.382-2.509-1.146c-0.679-0.764-1.018-1.864-1.018-3.301s0.339-2.537,1.018-3.301
			c0.678-0.764,1.514-1.146,2.509-1.146s1.829,0.382,2.503,1.146s1.01,1.855,1.01,3.273
			C126.163,56.359,125.827,57.469,125.153,58.232"/>
		<path fill="#FFFFFF" d="M75.599,44.809c1.271,0,2.301-1.03,2.301-2.301c0-1.27-1.03-2.3-2.301-2.3s-2.3,1.03-2.3,2.3
			C73.299,43.778,74.328,44.809,75.599,44.809"/>
	</g>
</g>
</svg>
